<?xml version="1.0" encoding="UTF-8" standalone="no"?>
<svg
   xmlns:dc="http://purl.org/dc/elements/1.1/"
   xmlns:cc="http://creativecommons.org/ns#"
   xmlns:rdf="http://www.w3.org/1999/02/22-rdf-syntax-ns#"
   xmlns:svg="http://www.w3.org/2000/svg"
   xmlns="http://www.w3.org/2000/svg"
   xmlns:sodipodi="http://sodipodi.sourceforge.net/DTD/sodipodi-0.dtd"
   xmlns:inkscape="http://www.inkscape.org/namespaces/inkscape"
   id="svg2"
   viewBox="0 0 709.64 318.6"
   version="1.0"
   inkscape:version="0.91 r13725"
   sodipodi:docname="logo.svg">
  <defs
     id="defs3705" />
  <sodipodi:namedview
     pagecolor="#ffffff"
     bordercolor="#666666"
     borderopacity="1"
     objecttolerance="10"
     gridtolerance="10"
     guidetolerance="10"
     inkscape:pageopacity="0"
     inkscape:pageshadow="2"
     inkscape:window-width="1280"
     inkscape:window-height="1376"
     id="namedview3703"
     showgrid="false"
     inkscape:zoom="0.86804575"
     inkscape:cx="297.10326"
     inkscape:cy="18.68327"
     inkscape:window-x="0"
     inkscape:window-y="27"
     inkscape:window-maximized="0"
     inkscape:current-layer="svg2" />
  <g
     id="layer1"
     transform="matrix(-1,0,0,1,728.47893,-64.294)"
     style="stroke:#000000;stroke-width:15;stroke-linecap:round;stroke-linejoin:round"
     inkscape:export-xdpi="38.049976"
     inkscape:export-ydpi="38.049976">
    <path
       id="path2491"
       d="m 486.47,249.44 c 17.36,-18.58 -2.61,-52.28 -1.19,-100.23 1.43,-47.87 33.75,-64.18 33.75,-64.18 0,0 -10.33,4.037 -6.98,27.38 2.84,19.8 9.13,42.82 23.5,55.58 14.79,12.23 39.12,45.62 30.15,63.45 18.09,-6.14 46.27,8.4 67.08,27.68 21.72,20.55 35.63,30.45 50.69,35.26 21.63,6.92 37.47,0.82 37.47,0.82 -24.75,21.36 -72.19,21.67 -103.15,15.92 -30.29,-5.63 -47.2,-22.11 -74.75,-15.8 -34.98,11.95 -92.86,66.09 -181.53,77.64 C 272.84,384.51 63.25,352.57 38.12,326.13 12.984,299.7 36.019,290.8 34.367,291.99 c -0.224,-0.23 6.034,5.98 133.22,37.5 C 144.767,325.82 47.002478,301.69887 32.477032,251.82361 13.970825,188.27981 81.493,96.3 124.567,75.92 c 43.07,-20.368 140.96,38.97 216.25,82.99 89.27,52.21 125.84,111.73 145.65,90.53 z"
       inkscape:connector-curvature="0"
       style="fill:none"
       sodipodi:nodetypes="cccccccccccscccacccc" />
    <path
       id="path3894"
       d="m 212.87193,256.60735 a 11.65681,9.8205298 0 1 1 -23.3119,0 11.65681,9.8205298 0 1 1 23.3119,0 z"
       inkscape:connector-curvature="0"
       style="stroke-width:12.50200462" />
  </g>
  <metadata
     id="metadata3701">
    <rdf:RDF>
      <cc:Work>
        <dc:format>image/svg+xml</dc:format>
        <dc:type
           rdf:resource="http://purl.org/dc/dcmitype/StillImage" />
        <cc:license
           rdf:resource="http://creativecommons.org/publicdomain/zero/1.0/" />
        <dc:publisher>
          <cc:Agent
             rdf:about="http://openclipart.org/">
            <dc:title>Openclipart</dc:title>
          </cc:Agent>
        </dc:publisher>
        <dc:title></dc:title>
        <dc:date>2008-10-24T04:19:54</dc:date>
        <dc:description>Cartoon diagram of a whale</dc:description>
        <dc:source>http://openclipart.org/detail/19703/whale-by-stumbles</dc:source>
        <dc:creator>
          <cc:Agent>
            <dc:title>stumbles</dc:title>
          </cc:Agent>
        </dc:creator>
        <dc:subject>
          <rdf:Bag>
            <rdf:li>animal</rdf:li>
            <rdf:li>clip art</rdf:li>
            <rdf:li>clipart</rdf:li>
            <rdf:li>fish</rdf:li>
            <rdf:li>image</rdf:li>
            <rdf:li>mammal</rdf:li>
            <rdf:li>media</rdf:li>
            <rdf:li>png</rdf:li>
            <rdf:li>public domain</rdf:li>
            <rdf:li>svg</rdf:li>
            <rdf:li>whale</rdf:li>
          </rdf:Bag>
        </dc:subject>
      </cc:Work>
      <cc:License
         rdf:about="http://creativecommons.org/licenses/publicdomain/">
        <cc:permits
           rdf:resource="http://creativecommons.org/ns#Reproduction" />
        <cc:permits
           rdf:resource="http://creativecommons.org/ns#Distribution" />
        <cc:permits
           rdf:resource="http://creativecommons.org/ns#DerivativeWorks" />
      </cc:License>
    </rdf:RDF>
  </metadata>
  <text
     xml:space="preserve"
     style="font-style:normal;font-weight:normal;font-size:40px;line-height:125%;font-family:sans-serif;letter-spacing:0px;word-spacing:0px;fill:#000000;fill-opacity:1;stroke:none;stroke-width:1px;stroke-linecap:butt;stroke-linejoin:miter;stroke-opacity:1"
     x="402.15219"
     y="289.49814"
     id="text3707"
     sodipodi:linespacing="125%"
     transform="matrix(0.92810125,-0.3723279,0.3723279,0.92810125,0,0)"
     inkscape:export-xdpi="38.049976"
     inkscape:export-ydpi="38.049976"><tspan
       sodipodi:role="line"
       id="tspan3709"
       x="402.15219"
       y="289.49814"
       style="font-style:normal;font-variant:normal;font-weight:bold;font-stretch:normal;font-family:Purisa;-inkscape-font-specification:'Purisa Bold'">kbuild</tspan></text>
</svg>
